<svg xmlns="http://www.w3.org/2000/svg" xmlns:xlink="http://www.w3.org/1999/xlink" viewBox="0,0,256,256" width="50px" height="50px" fill-rule="nonzero"><g fill="#6951dc" fill-rule="nonzero" stroke="none" stroke-width="1" stroke-linecap="butt" stroke-linejoin="miter" stroke-miterlimit="10" stroke-dasharray="" stroke-dashoffset="0" font-family="none" font-weight="none" font-size="none" text-anchor="none" style="mix-blend-mode: normal"><g transform="scale(5.12,5.12)"><path d="M15,4c-0.26562,0 -0.51953,0.10547 -0.70703,0.29297c-0.1875,0.1875 -0.29297,0.44141 -0.29297,0.70703l0.00781,16.97656c0,0.47656 0.33594,0.88672 0.80469,0.98047c0.46484,0.09375 0.93359,-0.15625 1.12109,-0.59375c1.875,-4.47266 6.21875,-7.36328 11.06641,-7.36328c6.61719,0 12,5.38281 12,12c0,6.61719 -5.38281,12 -12,12c-2.57422,0 -5.00391,-0.82422 -7,-2.26562v-9.73437c0,-3.85937 3.14063,-7 7,-7c3.85938,0 7,3.14063 7,7c0,3.85938 -3.14062,7 -7,7c-0.86719,0 -1.72656,-0.16406 -2.54687,-0.48437c-0.51562,-0.20312 -1.09766,0.05078 -1.29687,0.5625c-0.20312,0.51563 0.05078,1.09375 0.5625,1.29688c1.05859,0.41406 2.16406,0.625 3.28125,0.625c4.96094,0 9,-4.03906 9,-9c0,-4.96094 -4.03906,-9 -9,-9c-4.96094,0 -9,4.03906 -9,9v7.91797c-0.84766,-0.96484 -1.55469,-2.07422 -2.06641,-3.30859c-0.21484,-0.50781 -0.80078,-0.75 -1.30859,-0.53516c-0.51172,0.21094 -0.75,0.79688 -0.53906,1.30469c2.18359,5.23828 7.25391,8.62109 12.91406,8.62109c7.71875,0 14,-6.28125 14,-14c0,-7.71875 -6.28125,-14 -14,-14c-4.36719,0 -8.38281,2.00781 -10.99609,5.32422l-0.00391,-12.32422h20c0.55078,0 1,-0.44922 1,-1c0,-0.55078 -0.44922,-1 -1,-1zM27,8c-2.17578,0 -4.30859,0.36719 -6.34375,1.08594c-0.51953,0.18359 -0.79297,0.75391 -0.60937,1.27344c0.18359,0.52344 0.75781,0.79297 1.27734,0.60938c1.81641,-0.64062 3.72656,-0.96875 5.67578,-0.96875c4.67969,0 9.04297,1.85938 12.28125,5.24219c0.19531,0.20703 0.45703,0.30859 0.71875,0.30859c0.25,0 0.5,-0.08984 0.69141,-0.27734c0.39844,-0.38281 0.41406,-1.01562 0.03125,-1.41406c-3.61719,-3.77734 -8.49219,-5.85937 -13.72266,-5.85937zM25,24c-0.25391,0 -0.51172,0.09766 -0.70703,0.29297c-0.39062,0.39063 -0.39062,1.02344 0,1.41406l1.29297,1.29297l-1.29297,1.29297c-0.39062,0.39063 -0.39062,1.02344 0,1.41406c0.19531,0.19531 0.44922,0.29297 0.70703,0.29297c0.25781,0 0.51172,-0.09766 0.70703,-0.29297l1.29297,-1.29297l1.29297,1.29297c0.19531,0.19531 0.44922,0.29297 0.70703,0.29297c0.25781,0 0.51172,-0.09766 0.70703,-0.29297c0.39063,-0.39062 0.39063,-1.02344 0,-1.41406l-1.29297,-1.29297l1.29297,-1.29297c0.39063,-0.39062 0.39063,-1.02344 0,-1.41406c-0.39062,-0.39062 -1.02344,-0.39062 -1.41406,0l-1.29297,1.29297l-1.29297,-1.29297c-0.19531,-0.19531 -0.45312,-0.29297 -0.70703,-0.29297zM8.97656,26.5625c-0.55078,0.01563 -0.98438,0.48047 -0.96875,1.03125c0.32031,10.32031 8.66016,18.40625 18.99219,18.40625c5.76172,0 11.14453,-2.57812 14.77734,-7.06641c0.34766,-0.43359 0.28125,-1.0625 -0.14844,-1.41016c-0.42969,-0.34766 -1.05859,-0.27734 -1.40625,0.14844c-3.25,4.02344 -8.07031,6.32813 -13.22266,6.32813c-9.24609,0 -16.70703,-7.23437 -16.99219,-16.46875c-0.01562,-0.55078 -0.47656,-1.00391 -1.03125,-0.96875z"></path></g></g></svg>