<svg xmlns="http://www.w3.org/2000/svg" xmlns:xlink="http://www.w3.org/1999/xlink" viewBox="0,0,256,256" width="32px" height="32px" fill-rule="nonzero"><g fill="#6951dc" fill-rule="nonzero" stroke="none" stroke-width="1" stroke-linecap="butt" stroke-linejoin="miter" stroke-miterlimit="10" stroke-dasharray="" stroke-dashoffset="0" font-family="none" font-weight="none" font-size="none" text-anchor="none" style="mix-blend-mode: normal"><g transform="scale(8,8)"><path d="M15.76953,5.05078c-2.51,0.01 -4.76914,0.78906 -6.36914,2.03906c-1.27,0.85 -2.14961,2.19023 -2.34961,3.74023v0.01953c-0.03,0.21 -0.05078,0.43039 -0.05078,0.65039c0,1.93 1.57,3.5 3.5,3.5c1.93,0 3.5,-1.57 3.5,-3.5c0,-1.5 -0.94953,-2.76953 -2.26953,-3.26953c0.26,-0.05 0.53031,-0.08984 0.82031,-0.08984c1.9,0 3.44922,1.50938 3.44922,3.35938c0,2.79 -4.70969,7.18953 -10.67969,12.76953l-1.84961,1.73047h19.5293v3l7,-4l-7,-4v3h-5.84961c4.16,-4.4 6.84961,-7.57016 6.84961,-12.16016c0,-3.86 -3.50969,-6.76906 -8.17969,-6.78906h-0.03125zM15.58984,7.05078h0.19922c3.54,0.01 6.21094,2.05906 6.21094,4.78906c0,4.16 -2.76008,7.05937 -7.33008,11.85938l-0.2793,0.30078h-5.86133c6.07,-5.73 9.4707,-9.32 9.4707,-12.5c0,-1.85 -0.96016,-3.47922 -2.41016,-4.44922zM10.5,10c0.83,0 1.5,0.67 1.5,1.5c0,0.83 -0.67,1.5 -1.5,1.5c-0.83,0 -1.5,-0.67 -1.5,-1.5c0,-0.11 0.0193,-0.21055 0.0293,-0.31055c0.15,-0.68 0.7507,-1.18945 1.4707,-1.18945zM25,24.44922l0.9707,0.55078l-0.9707,0.55078z"></path></g></g></svg>