<?xml version="1.0" encoding="UTF-8"?>
<!DOCTYPE svg PUBLIC "-//W3C//DTD SVG 1.1//EN" "http://www.w3.org/Graphics/SVG/1.1/DTD/svg11.dtd">
<svg xmlns="http://www.w3.org/2000/svg" version="1.1" width="48px" height="48px" style="shape-rendering:geometricPrecision; text-rendering:geometricPrecision; image-rendering:optimizeQuality; fill-rule:evenodd; clip-rule:evenodd" xmlns:xlink="http://www.w3.org/1999/xlink">
<g><path style="opacity:0.873" fill="#ffd116" d="M 27.5,10.5 C 22.9802,15.1142 17.9802,19.2809 12.5,23C 10.9751,24.0086 9.30839,24.5086 7.5,24.5C 4.92652,23.1207 3.42652,21.1207 3,18.5C 7.44842,17.6289 11.9484,16.7955 16.5,16C 18.5,12 20.5,8 22.5,4C 23.4491,3.38277 24.2825,3.54943 25,4.5C 26.122,6.40679 26.9553,8.40679 27.5,10.5 Z"/></g>
<g><path style="opacity:0.967" fill="#fecb11" d="M 27.5,10.5 C 28.3606,12.3863 29.3606,14.2196 30.5,16C 32.3817,16.1981 34.0484,16.6981 35.5,17.5C 27.7829,23.8847 19.7829,29.8847 11.5,35.5C 11.4332,33.5992 11.7665,31.7659 12.5,30C 10.6495,28.317 8.98283,26.4837 7.5,24.5C 9.30839,24.5086 10.9751,24.0086 12.5,23C 17.9802,19.2809 22.9802,15.1142 27.5,10.5 Z"/></g>
<g><path style="opacity:0.969" fill="#fdc40d" d="M 35.5,17.5 C 38.1873,17.3359 40.854,17.5026 43.5,18C 43.9574,18.414 44.2907,18.914 44.5,19.5C 41.7488,23.2567 38.4154,26.2567 34.5,28.5C 30.6496,31.2608 26.9829,34.2608 23.5,37.5C 19.739,39.9153 15.739,41.9153 11.5,43.5C 10.8333,43.1667 10.1667,42.8333 9.5,42.5C 10.1702,40.1369 10.8368,37.8036 11.5,35.5C 19.7829,29.8847 27.7829,23.8847 35.5,17.5 Z"/></g>
<g><path style="opacity:0.92" fill="#fdbd09" d="M 34.5,28.5 C 35.2438,33.2191 36.2438,37.8857 37.5,42.5C 36.277,43.6139 34.9437,43.7805 33.5,43C 30.2766,40.9377 26.9432,39.1044 23.5,37.5C 26.9829,34.2608 30.6496,31.2608 34.5,28.5 Z"/></g>
</svg>
