<?xml version="1.0" encoding="UTF-8"?>
<!DOCTYPE svg PUBLIC "-//W3C//DTD SVG 1.1//EN" "http://www.w3.org/Graphics/SVG/1.1/DTD/svg11.dtd">
<svg xmlns="http://www.w3.org/2000/svg" version="1.1" width="50px" height="50px" style="shape-rendering:geometricPrecision; text-rendering:geometricPrecision; image-rendering:optimizeQuality; fill-rule:evenodd; clip-rule:evenodd" xmlns:xlink="http://www.w3.org/1999/xlink">
<g><path style="opacity:0.778" fill="#674fdd" d="M 46.5,-0.5 C 47.5,-0.5 48.5,-0.5 49.5,-0.5C 49.5,1.5 49.5,3.5 49.5,5.5C 45.2317,19.9066 41.565,34.5733 38.5,49.5C 37.1667,49.5 35.8333,49.5 34.5,49.5C 30.8704,45.369 27.037,41.369 23,37.5C 20.128,40.0366 17.628,42.8699 15.5,46C 14.552,46.4828 13.552,46.6495 12.5,46.5C 12.4554,41.7464 12.6221,37.0798 13,32.5C 8.52675,30.7315 4.02675,29.0648 -0.5,27.5C -0.5,26.5 -0.5,25.5 -0.5,24.5C 15.4223,16.561 31.0889,8.22766 46.5,-0.5 Z M 43.5,4.5 C 44.4972,4.47008 45.1639,4.97008 45.5,6C 42.3765,18.9996 38.8765,31.8329 35,44.5C 31.6507,41.318 28.484,37.9846 25.5,34.5C 30.8061,26.6939 36.3061,19.0273 42,11.5C 42.5,9.33333 41.6667,8.5 39.5,9C 31.312,16.0223 22.9787,22.8557 14.5,29.5C 11.2043,28.2347 7.87098,27.0681 4.5,26C 17.8835,19.3129 30.8835,12.1463 43.5,4.5 Z M 28.5,21.5 C 29.2389,21.369 29.9056,21.5357 30.5,22C 25.6667,28.1667 20.8333,34.3333 16,40.5C 15.5423,37.4424 15.8756,34.4424 17,31.5C 21.0261,28.3016 24.8595,24.9683 28.5,21.5 Z"/></g>
</svg>
